<?xml version="1.0" encoding="iso-8859-1"?>
<!-- Generator: Adobe Illustrator 19.0.0, SVG Export Plug-In . SVG Version: 6.00 Build 0)  -->
<svg version="1.1" id="Capa_1" xmlns="http://www.w3.org/2000/svg" xmlns:xlink="http://www.w3.org/1999/xlink" x="0px" y="0px"
	 viewBox="0 0 423.988 423.988" style="enable-background:new 0 0 423.988 423.988;" xml:space="preserve">
<g>
	<g>
		<path d="M118.13,285.888h-54c-5.5,0-10,4.5-10,10v37c0,5.5,4.5,10,10,10h54c5.5,0,10-4.5,10-10v-37
			C128.13,290.388,123.63,285.888,118.13,285.888z M108.13,322.888h-34v-17h34V322.888z"/>
	</g>
</g>
<g>
	<g>
		<path d="M319.13,285.888h-54c-5.5,0-10,4.5-10,10v37c0,5.5,4.5,10,10,10h54c5.5,0,10-4.5,10-10v-37
			C329.13,290.388,324.63,285.888,319.13,285.888z M309.13,322.888h-34v-17h34V322.888z"/>
	</g>
</g>
<g>
	<g>
		<path d="M226.73,321.888h-69.6c-5.5,0-10,4.5-10,10s4.4,10,10,10h69.6c5.5,0,10-4.5,10-10S232.23,321.888,226.73,321.888z"/>
	</g>
</g>
<g>
	<g>
		<path d="M226.73,293.888h-69.6c-5.5,0-10,4.5-10,10s4.4,10,10,10h69.6c5.5,0,10-4.5,10-10S232.23,293.888,226.73,293.888z"/>
	</g>
</g>
<g>
	<g>
		<path d="M398.03,48.488l-88.7-47.3c-3-1.6-6.5-1.6-9.5,0.1l-86.5,47.3c-3.2,1.7-5.3,5.1-5.3,8.8v67c0.1,15.2,2.8,30.3,8.1,44.6
			h-114.6c-13.3,0-25.4,8-30.6,20.3l-24.7,57.5l-10,9.5c-9.7,8.4-15.3,20.7-15.2,33.6v101.2c-0.2,18,14.2,32.7,32.2,32.9
			c0.1,0,0.1,0,0.2,0h19c18.1-0.1,32.7-14.8,32.6-32.9v-12.2h173v12.1c0.2,18.2,14.9,32.9,33.1,32.9h19
			c18.1-0.1,32.8-14.7,32.9-32.9v-103.8c0-12.1-5-23.6-13.7-31.9l-7-7.4l-4.6-10.1c40.5-24,65.3-67.6,65.2-114.7v-65.7
			C403.23,53.588,401.23,50.188,398.03,48.488z M89.33,197.188c2.1-5,6.9-8.2,12.2-8.3h123.8c2.9,5.2,6.1,10.2,9.6,15
			c-16.8,6.5-29.1,21.2-32.5,39H69.83L89.33,197.188z M249.83,220.888c9.2,8.7,19.5,16.1,30.7,22h-57.5
			C226.83,230.888,237.33,222.288,249.83,220.888z M85.13,390.988c0.1,7-5.5,12.8-12.6,12.9h-19c-7.1,0-12.4-5.8-12.4-12.9v-14.3
			c3.9,1.6,8.2,2.3,12.4,2.2h31.6V390.988z M343.13,390.988c0,7.1-5.8,12.9-12.9,12.9h-19c-7.1,0-13-5.7-13.1-12.9v-12.1h32.1
			c4.4,0.1,8.8-0.6,12.9-2.2V390.988z M343.13,287.088v59.4c0,7.1-5.8,12.4-12.9,12.4H53.53c-6.7,0.2-12.2-5.1-12.4-11.8
			c0-0.2,0-0.4,0-0.6v-56.7c-0.1-7.1,3-13.8,8.3-18.5c0.1-0.1,0.1-0.1,0.2-0.2l8.9-8.2h270.4l6.1,6.3c0.1,0.1,0.3,0.2,0.5,0.4
			C340.33,274.188,343.13,280.488,343.13,287.088z M383.13,122.988c0.1,45.6-27.2,86.8-69.3,104.5l-9.5,4.1l-8.1-3.5
			c-41.3-18-68.1-58.8-68.2-103.9v-61l76.3-41.9l78.8,42V122.988z"/>
	</g>
</g>
<g>
	<g>
		<path d="M354.33,100.988c-3.5-4.3-9.8-4.9-14.1-1.4l-46.8,38.1l-17-19.9c-3.6-4.2-9.9-4.7-14.1-1.1c-4.2,3.6-4.7,9.9-1.1,14.1
			l23.3,27.3c0.1,0.1,0.2,0.2,0.3,0.3s0.2,0.3,0.4,0.4c0.2,0.1,0.3,0.3,0.4,0.4c0.1,0.1,0.3,0.2,0.4,0.3c0.1,0.1,0.3,0.2,0.5,0.3
			c0.1,0.1,0.3,0.2,0.4,0.3c0.2,0.1,0.3,0.2,0.5,0.3c0.1,0.1,0.3,0.2,0.4,0.2c0.2,0.1,0.4,0.2,0.6,0.2c0.1,0.1,0.3,0.1,0.4,0.2
			c0.2,0.1,0.4,0.1,0.6,0.2c0.1,0,0.3,0.1,0.4,0.1c0.2,0,0.4,0.1,0.6,0.1c0.1,0,0.3,0.1,0.4,0.1c0.3,0,0.5,0,0.8,0
			c0.1,0,0.2,0,0.3,0c0.3,0,0.6,0,0.9,0c0.1,0,0.1,0,0.2,0c0.2,0,0.5-0.1,0.7-0.1c0.1,0,0.2,0,0.3-0.1c0.2,0,0.4-0.1,0.6-0.1
			c0.1,0,0.2-0.1,0.3-0.1c0.2,0,0.3-0.1,0.5-0.2c0.1,0,0.2-0.1,0.4-0.1c0.1-0.1,0.3-0.1,0.4-0.2c0.1-0.1,0.2-0.1,0.4-0.2
			s0.3-0.1,0.4-0.2c0.1-0.1,0.2-0.2,0.4-0.2c0.1-0.1,0.3-0.2,0.4-0.2s0.2-0.2,0.4-0.3c0.1-0.1,0.2-0.1,0.3-0.2l54.4-44.2
			C357.23,111.588,357.83,105.288,354.33,100.988z"/>
	</g>
</g>
<g>
</g>
<g>
</g>
<g>
</g>
<g>
</g>
<g>
</g>
<g>
</g>
<g>
</g>
<g>
</g>
<g>
</g>
<g>
</g>
<g>
</g>
<g>
</g>
<g>
</g>
<g>
</g>
<g>
</g>
</svg>
