<?xml version="1.0" encoding="iso-8859-1"?>
<!-- Generator: Adobe Illustrator 19.0.0, SVG Export Plug-In . SVG Version: 6.00 Build 0)  -->
<svg version="1.1" id="Capa_1" xmlns="http://www.w3.org/2000/svg" xmlns:xlink="http://www.w3.org/1999/xlink" x="0px" y="0px"
	 viewBox="0 0 512.001 512.001" style="enable-background:new 0 0 512.001 512.001;" xml:space="preserve">
<g>
	<g>
		<path d="M511.993,408.143c-0.324-27.92-10.671-54.888-29.141-75.943l-25.271-28.753c-2.616-2.978-6.745-4.131-10.523-2.934
			c-3.779,1.193-6.497,4.507-6.928,8.446c-0.404,3.691-0.89,7.286-1.43,10.751c-11.086-35.387-28.865-69.461-29.949-71.524
			c-0.444-0.846-1.012-1.601-1.658-2.272v-11.951c1.552,0.931,3.326,1.431,5.137,1.431c0.428,0,0.857-0.027,1.286-0.083
			c2.715-0.352,5.167-1.802,6.784-4.011l30.922-42.252c3.164-4.323,2.359-10.372-1.825-13.717L232.821,2.19
			c-3.65-2.92-8.838-2.92-12.488,0l-71.648,57.28V36.74h0.301c5.523,0,10-4.478,10-10c0-5.522-4.477-10-10-10h-10.301H65.286H54.985
			c-5.523,0-10,4.478-10,10c0,5.522,4.477,10,10,10h0.301v97.397l-51.53,41.195c-4.185,3.345-4.989,9.393-1.825,13.717L32.853,231.3
			c1.617,2.209,4.069,3.659,6.784,4.011c2.46,0.318,4.938-0.298,6.966-1.699v241.866c0,5.522,4.476,10,10,10h203.675h57.137
			c10.081,10.846,21.954,19.454,35.341,25.608c1.31,0.603,2.735,0.914,4.177,0.914h16.168h56.189h13.566
			c1.442,0,2.867-0.311,4.178-0.914c13.942-6.41,26.267-15.499,36.63-27.013C502.261,463.422,512.322,436.457,511.993,408.143z
			 M75.286,36.74h53.398v38.718l-53.398,42.69V36.74z M42.787,211.009l-19.057-26.04L226.577,22.803l202.847,162.166l-19.057,26.04
			L232.874,67.115c-3.671-2.977-8.924-2.977-12.595,0L42.787,211.009z M250.278,268.098v122.307H133.631c-5.522,0-10,4.478-10,10
			c0,5.522,4.478,10,10,10h116.646v55.072H66.603V223.574h224.114c5.524,0,10-4.478,10-10c0-5.523-4.476-10-10-10H83.718
			L226.577,87.756l160.517,130.133v34.373l-19.395,22.07c-2.228,2.539-4.367,5.138-6.421,7.789v-14.022c0-5.522-4.477-10-10-10h-91
			C254.756,258.098,250.278,262.576,250.278,268.098z M304.344,348.87c-0.8,1.276-1.571,2.565-2.316,3.865
			c-0.35,0.611-0.673,1.232-1.011,1.848c-0.38,0.694-0.773,1.383-1.139,2.083c-0.407,0.78-0.785,1.571-1.173,2.359
			c-0.269,0.546-0.552,1.086-0.811,1.635c-0.411,0.87-0.792,1.75-1.18,2.628c-0.211,0.477-0.436,0.948-0.639,1.427
			c-0.393,0.924-0.755,1.858-1.122,2.79c-0.174,0.442-0.362,0.879-0.53,1.323c-0.36,0.951-0.691,1.91-1.025,2.869
			c-0.151,0.434-0.316,0.865-0.462,1.3c-0.319,0.955-0.609,1.918-0.902,2.88c-0.137,0.448-0.287,0.893-0.417,1.343
			c-0.274,0.944-0.52,1.895-0.769,2.845c-0.125,0.477-0.263,0.95-0.382,1.428c-0.228,0.92-0.428,1.847-0.632,2.772
			c-0.114,0.517-0.242,1.03-0.349,1.548c-0.182,0.881-0.336,1.768-0.496,2.653c-0.104,0.571-0.22,1.14-0.315,1.713
			c-0.137,0.831-0.247,1.668-0.366,2.503c-0.09,0.635-0.192,1.267-0.271,1.904c-0.097,0.774-0.168,1.552-0.247,2.329
			c-0.073,0.705-0.156,1.408-0.216,2.115c-0.06,0.715-0.097,1.434-0.143,2.151c-0.05,0.774-0.11,1.547-0.144,2.323
			c-0.029,0.656-0.036,1.315-0.054,1.973c-0.023,0.843-0.053,1.686-0.057,2.531c-0.003,0.595,0.015,1.191,0.021,1.787
			c0.01,0.913,0.015,1.825,0.047,2.74c0.018,0.539,0.056,1.08,0.082,1.619c0.041,0.84,0.069,1.678,0.129,2.52
			c0.011,0.16,0.028,0.318,0.04,0.477c0.004,0.047,0.004,0.093,0.008,0.14c0.009,0.117,0.024,0.233,0.034,0.35
			c0.1,1.268,0.223,2.531,0.364,3.789c0.028,0.254,0.056,0.508,0.086,0.761c0.335,2.809,0.772,5.591,1.31,8.344
			c0.05,0.258,0.103,0.516,0.156,0.773c0.246,1.214,0.51,2.423,0.796,3.625c0.04,0.167,0.076,0.336,0.116,0.503
			c0.328,1.353,0.681,2.697,1.058,4.033c0.062,0.22,0.129,0.439,0.193,0.659c0.32,1.108,0.658,2.211,1.012,3.307
			c0.099,0.307,0.197,0.613,0.298,0.919c0.429,1.29,0.874,2.574,1.35,3.846c0.017,0.045,0.035,0.088,0.052,0.133
			c0.452,1.205,0.931,2.399,1.425,3.586c0.147,0.355,0.298,0.708,0.449,1.061c0.419,0.979,0.851,1.951,1.298,2.917
			c0.126,0.274,0.248,0.551,0.377,0.824c0.556,1.178,1.135,2.346,1.733,3.505c0.171,0.332,0.35,0.66,0.524,0.99
			c0.464,0.878,0.941,1.751,1.43,2.618c0.205,0.364,0.409,0.728,0.619,1.09c0.106,0.184,0.207,0.371,0.314,0.555h-32.219v-0.001
			V278.099h71v37.243c-3.491,7.734-6.347,15.707-8.574,23.822c-0.031,0.111-0.061,0.223-0.091,0.335
			c-0.228,0.836-0.449,1.673-0.663,2.512c-0.088,0.344-0.173,0.688-0.259,1.033c-0.155,0.626-0.31,1.253-0.457,1.881
			c-0.144,0.605-0.28,1.211-0.416,1.817c-0.086,0.386-0.174,0.771-0.258,1.158c-0.199,0.919-0.389,1.84-0.572,2.762
			c-0.018,0.089-0.036,0.177-0.053,0.265c-1.08,5.485-1.881,11.019-2.384,16.581c-0.172-0.456-0.335-0.928-0.504-1.389
			c-0.293-0.801-0.589-1.596-0.874-2.411c-0.131-0.374-0.252-0.76-0.381-1.137c-0.315-0.924-0.631-1.845-0.933-2.786
			c-0.082-0.253-0.155-0.515-0.236-0.769c-0.339-1.075-0.675-2.153-0.994-3.249c-0.395-1.355-0.773-2.724-1.133-4.108
			c-1.005-3.863-4.213-6.759-8.158-7.365C310.391,343.687,306.463,345.486,304.344,348.87z M424.565,492h-45.913V492
			c-2.912-5.867-4.046-13.277-2.982-20.344c0.91-6.043,3.359-11.034,6.551-13.352c10.949-7.945,18.673-27.862,23.172-42.891
			c10.591,12.151,24.646,33.199,24.646,59.317C430.039,480.966,428.118,486.968,424.565,492z M468.8,470.693
			c-6.059,6.732-12.927,12.452-20.501,17.089c1.138-4.215,1.738-8.594,1.738-13.05c0-51.599-42.049-85.092-43.839-86.492
			c-2.717-2.126-6.34-2.699-9.58-1.521c-3.242,1.18-5.648,3.947-6.365,7.322c-3.415,16.078-12.064,42.478-19.78,48.077
			c-7.661,5.56-12.839,14.993-14.581,26.56c-1.126,7.48-0.673,15.119,1.162,22.218c-10.157-5.285-19.189-12.354-26.869-21.111
			c-0.486-0.553-0.956-1.117-1.427-1.68c-0.266-0.317-0.532-0.634-0.793-0.954c-0.494-0.607-0.98-1.219-1.457-1.837
			c-0.082-0.105-0.165-0.21-0.246-0.316c-18.339-23.985-23.58-55.596-14.842-83.934c0.196,0.47,0.393,0.924,0.589,1.387
			c0.207,0.488,0.415,0.984,0.622,1.464c0.214,0.493,0.428,0.969,0.642,1.452c0.2,0.452,0.4,0.912,0.6,1.356
			c0.23,0.512,0.46,1.004,0.69,1.504c0.182,0.396,0.365,0.802,0.547,1.19c0.261,0.559,0.52,1.097,0.779,1.64
			c0.148,0.311,0.298,0.632,0.446,0.938c0.311,0.645,0.619,1.267,0.926,1.887c0.092,0.187,0.186,0.383,0.279,0.568
			c0.362,0.726,0.718,1.428,1.071,2.117c0.036,0.069,0.072,0.144,0.108,0.213c0.777,1.513,1.53,2.936,2.248,4.261
			c3.195,5.896,6.021,10.463,7.828,13.256c1.14,1.761,1.992,2.999,2.506,3.728c0.917,1.3,3.296,4.646,7.44,5.311
			c0.027,0.005,0.055,0.008,0.083,0.013c0.226,0.034,0.454,0.064,0.689,0.082c0.198,0.016,0.398,0.019,0.599,0.022
			c0.173,0.002,0.348-0.001,0.527-0.009c0.24-0.01,0.482-0.029,0.727-0.057c0.106-0.012,0.212-0.026,0.32-0.042
			c0.352-0.052,0.706-0.115,1.066-0.203c0.33-0.082,0.652-0.179,0.966-0.291c3.115-1.11,5.392-3.659,6.255-6.696
			c0.006-0.022,0.015-0.042,0.021-0.064c0.082-0.294,0.148-0.593,0.202-0.895c0.002-0.013,0.006-0.025,0.009-0.038
			c0.042-0.238,0.067-0.48,0.091-0.722c0.008-0.079,0.023-0.156,0.03-0.236c0.015-0.194,0.013-0.39,0.016-0.586
			c0.002-0.13,0.014-0.258,0.011-0.389v-0.001c-0.004-0.217-0.027-0.436-0.046-0.654c-0.001-0.012-0.001-0.024-0.003-0.036
			c-0.009-0.098-0.009-0.195-0.021-0.293c0-0.001,0-0.002,0-0.003c-0.018-0.147-0.052-0.294-0.076-0.441
			c-0.03-0.184-0.053-0.367-0.095-0.55c-0.264-1.191-0.505-2.386-0.737-3.582c-0.067-0.35-0.133-0.7-0.198-1.05
			c-0.173-0.934-0.335-1.869-0.488-2.805c-0.05-0.306-0.105-0.611-0.153-0.918c-0.167-1.068-0.316-2.138-0.457-3.208
			c-0.076-0.58-0.146-1.16-0.215-1.741c-0.064-0.533-0.122-1.066-0.179-1.599c-0.261-2.463-0.46-4.933-0.587-7.409
			c-0.007-0.125-0.013-0.251-0.02-0.376c-0.456-9.371,0.046-18.809,1.487-28.141c0.019-0.12,0.038-0.24,0.057-0.36
			c0.383-2.442,0.835-4.876,1.347-7.301c0.128-0.604,0.258-1.207,0.394-1.81c0.111-0.494,0.222-0.988,0.339-1.482
			c0.269-1.136,0.546-2.27,0.844-3.399c0.022-0.087,0.047-0.173,0.07-0.259c0.319-1.204,0.654-2.404,1.005-3.6
			c0.031-0.107,0.063-0.214,0.094-0.32c5.446-18.407,14.638-35.862,27.249-51.116c0.903-1.092,1.824-2.174,2.762-3.243
			l14.817-16.861c10.476,22.091,29.928,66.977,29.928,95.663c0,4.839,3.466,8.984,8.228,9.842c4.763,0.855,9.455-1.818,11.144-6.353
			c0.298-0.801,5.736-15.567,9.882-37.048l11.097,12.626C499.838,381.893,500.259,435.758,468.8,470.693z"/>
	</g>
</g>
<g>
	<g>
		<path d="M334.819,206.501c-0.46-0.46-0.971-0.88-1.521-1.24c-0.55-0.36-1.13-0.67-1.729-0.92c-0.6-0.25-1.23-0.44-1.87-0.57
			c-1.29-0.26-2.62-0.26-3.91,0c-0.64,0.13-1.27,0.32-1.87,0.57c-0.6,0.25-1.18,0.56-1.729,0.92c-0.54,0.36-1.051,0.78-1.521,1.24
			c-1.859,1.859-2.92,4.439-2.92,7.069c0,0.65,0.061,1.311,0.191,1.961c0.131,0.631,0.32,1.26,0.57,1.87
			c0.25,0.601,0.561,1.181,0.92,1.721c0.36,0.55,0.78,1.06,1.24,1.52c0.47,0.46,0.98,0.88,1.521,1.25
			c0.55,0.36,1.13,0.67,1.729,0.92c0.6,0.25,1.23,0.44,1.87,0.57c0.65,0.13,1.3,0.189,1.96,0.189c2.63,0,5.2-1.069,7.07-2.93
			c0.46-0.46,0.88-0.97,1.24-1.52c0.359-0.54,0.67-1.12,0.92-1.721c0.25-0.609,0.44-1.239,0.569-1.869
			c0.13-0.65,0.2-1.311,0.2-1.961C337.749,210.939,336.679,208.36,334.819,206.501z"/>
	</g>
</g>
<g>
	<g>
		<path d="M106.41,398.45c-0.129-0.64-0.32-1.27-0.57-1.869c-0.25-0.601-0.56-1.181-0.92-1.73c-0.37-0.54-0.79-1.06-1.25-1.52
			c-2.32-2.32-5.77-3.38-9.02-2.73c-0.641,0.13-1.271,0.32-1.87,0.57c-0.61,0.25-1.19,0.56-1.73,0.92
			c-0.55,0.36-1.06,0.78-1.52,1.24c-0.46,0.46-0.88,0.979-1.24,1.52c-0.36,0.55-0.67,1.13-0.92,1.73c-0.25,0.6-0.44,1.229-0.57,1.87
			c-0.13,0.649-0.2,1.3-0.2,1.949c0,0.66,0.07,1.311,0.2,1.96c0.13,0.641,0.32,1.271,0.57,1.87c0.25,0.601,0.56,1.181,0.92,1.73
			c0.36,0.54,0.78,1.059,1.24,1.52c0.46,0.46,0.97,0.88,1.52,1.24c0.54,0.36,1.12,0.67,1.73,0.92c0.6,0.25,1.229,0.44,1.87,0.57
			c0.64,0.13,1.3,0.189,1.949,0.189c2.641,0,5.211-1.06,7.07-2.92c1.87-1.87,2.93-4.44,2.93-7.08
			C106.599,399.75,106.539,399.099,106.41,398.45z"/>
	</g>
</g>
<g>
	<g>
		<path d="M210.333,258.099H109c-5.522,0-10,4.478-10,10v97.951c0,5.523,4.478,10,10,10h101.333c5.524,0,10-4.477,10-10v-97.951
			C220.333,262.577,215.856,258.099,210.333,258.099z M200.333,356.05H119v-77.951h81.333V356.05z"/>
	</g>
</g>
<g>
</g>
<g>
</g>
<g>
</g>
<g>
</g>
<g>
</g>
<g>
</g>
<g>
</g>
<g>
</g>
<g>
</g>
<g>
</g>
<g>
</g>
<g>
</g>
<g>
</g>
<g>
</g>
<g>
</g>
</svg>
