<?xml version="1.0" encoding="iso-8859-1"?>
<!-- Generator: Adobe Illustrator 19.0.0, SVG Export Plug-In . SVG Version: 6.00 Build 0)  -->
<svg version="1.1" id="Capa_1" xmlns="http://www.w3.org/2000/svg" xmlns:xlink="http://www.w3.org/1999/xlink" x="0px" y="0px"
	 viewBox="0 0 480 480" style="enable-background:new 0 0 480 480;" xml:space="preserve">
<g>
	<g>
		<path d="M225.888,152H78.112C61.489,152.018,48.018,165.489,48,182.112v3.776c0.033,12.563,7.871,23.782,19.656,28.136
			c-34.022,29.143-57.691,68.521-67.464,112.24c-0.959,4.313,1.76,8.587,6.073,9.545C6.835,335.936,7.417,336,8,336h176
			c4.418,0,8-3.582,8-8c-0.057-52.996-43.004-95.943-96-96c-4.418,0-8,3.582-8,8s3.582,8,8,8c41.064,0.052,75.438,31.147,79.592,72
			H18.24c11.33-40.697,35.801-76.505,69.6-101.848L90.664,216H203.2c-13.587,33.128-9.683,70.86,10.4,100.504
			c2.487,3.652,7.464,4.596,11.116,2.108c3.652-2.487,4.595-7.464,2.108-11.116c-18.368-27.195-20.59-62.197-5.808-91.496h4.872
			c16.623-0.018,30.094-13.489,30.112-30.112v-3.776C255.983,165.489,242.511,152.018,225.888,152z M240,185.888
			c-0.009,7.79-6.322,14.103-14.112,14.112H78.112c-7.79-0.009-14.103-6.322-14.112-14.112v-3.776
			c0.009-7.79,6.322-14.103,14.112-14.112h147.776c7.79,0.009,14.103,6.322,14.112,14.112V185.888z"/>
	</g>
</g>
<g>
	<g>
		<path d="M416,352c-4.418,0-8,3.582-8,8c0,8.837-7.163,16-16,16s-16-7.163-16-16c0-4.418-3.582-8-8-8s-8,3.582-8,8
			c0,17.673,14.327,32,32,32c17.673,0,32-14.327,32-32C424,355.582,420.419,352,416,352z"/>
	</g>
</g>
<g>
	<g>
		<path d="M120,352c-4.418,0-8,3.582-8,8c0,8.837-7.163,16-16,16s-16-7.163-16-16c0-4.418-3.582-8-8-8s-8,3.582-8,8
			c0,17.673,14.327,32,32,32s32-14.327,32-32C128,355.582,124.419,352,120,352z"/>
	</g>
</g>
<g>
	<g>
		<path d="M400,240.408V232l-0.048-0.88c-4.9-38.316-22.628-73.845-50.296-100.8l-2.344-2.32H344c-26.499,0.026-47.974,21.501-48,48
			v69.696c0.034,14.727-5.819,28.858-16.256,39.248l-2.8,2.8c-6.101,6.084-13.527,10.676-21.696,13.416
			c-4.197,1.398-6.466,5.935-5.068,10.132c1.398,4.197,5.935,6.466,10.132,5.068c10.522-3.525,20.086-9.437,27.944-17.272l2.8-2.8
			C304.517,282.9,312.06,264.681,312,245.696V176c0.022-16.426,12.459-30.175,28.8-31.84c23.635,23.94,38.804,54.944,43.2,88.296
			v7.952c-45.278,4.171-79.94,42.122-80,87.592c0,4.418,3.582,8,8,8h160c4.418,0,8-3.582,8-8
			C479.94,282.53,445.279,244.579,400,240.408z M320.44,320c4.389-39.521,39.986-68.002,79.508-63.612
			c33.472,3.717,59.895,30.141,63.612,63.612H320.44z"/>
	</g>
</g>
<g>
	<g>
		<path d="M32,208H8c-4.418,0-8,3.582-8,8v32c0,4.418,3.582,8,8,8s8-3.582,8-8v-24h16c4.418,0,8-3.582,8-8S36.419,208,32,208z"/>
	</g>
</g>
<g>
	<g>
		<path d="M368,48h-28c-13.881,0.039-25.63,10.259-27.592,24H280c-4.418,0-8,3.582-8,8s3.582,8,8,8h32.408
			c1.962,13.741,13.711,23.961,27.592,24h28c4.418,0,8-3.582,8-8V56C376,51.582,372.419,48,368,48z M360,96h-20
			c-6.627,0-12-5.373-12-12v-8c0-6.627,5.373-12,12-12h20V96z"/>
	</g>
</g>
<g>
	<g>
		<path d="M472,416h-34.848c16.969-13.637,26.843-34.23,26.848-56c0-4.418-3.582-8-8-8s-8,3.582-8,8c0,30.928-25.072,56-56,56
			c-30.928,0-56-25.072-56-56c0-4.418-3.582-8-8-8s-8,3.582-8,8c0.005,21.77,9.879,42.363,26.848,56H141.152
			c16.969-13.637,26.843-34.23,26.848-56c0-4.418-3.582-8-8-8s-8,3.582-8,8c0,30.928-25.072,56-56,56c-30.928,0-56-25.072-56-56
			c0-4.418-3.582-8-8-8s-8,3.582-8,8c0.005,21.77,9.879,42.363,26.848,56H8c-4.418,0-8,3.582-8,8s3.582,8,8,8h464
			c4.418,0,8-3.582,8-8S476.419,416,472,416z"/>
	</g>
</g>
<g>
</g>
<g>
</g>
<g>
</g>
<g>
</g>
<g>
</g>
<g>
</g>
<g>
</g>
<g>
</g>
<g>
</g>
<g>
</g>
<g>
</g>
<g>
</g>
<g>
</g>
<g>
</g>
<g>
</g>
</svg>
