<svg height="496pt" viewBox="0 0 496 496.63537" width="496pt"
    xmlns="http://www.w3.org/2000/svg">
    <path d="m391.84375 416.636719c-13.230469 0-24 10.765625-24 24 0 13.230469 10.769531 24 24 24 13.234375 0 24-10.769531 24-24 0-13.234375-10.765625-24-24-24zm0 32c-4.40625 0-8-3.585938-8-8 0-4.417969 3.59375-8 8-8 4.410156 0 8 3.582031 8 8 0 4.414062-3.589844 8-8 8zm0 0"/>
    <path d="m167.84375 416.636719c-13.230469 0-24 10.765625-24 24 0 13.230469 10.769531 24 24 24 13.234375 0 24-10.769531 24-24 0-13.234375-10.765625-24-24-24zm0 32c-4.40625 0-8-3.585938-8-8 0-4.417969 3.59375-8 8-8 4.410156 0 8 3.582031 8 8 0 4.414062-3.589844 8-8 8zm0 0"/>
    <path d="m468.5 361.753906-65.710938-21.894531c-4.128906-1.375-7.808593-3.847656-10.640624-7.152344l-32.65625-38.105469c-7.597657-8.871093-18.671876-13.964843-30.367188-13.964843h-68.421875c.847656-5.945313.734375-11.921875-.304687-17.761719l93.589843-93.582031c3.25.574219 6.539063.894531 9.824219.894531 14.335938 0 28.679688-5.464844 39.601562-16.375 10.574219-10.578125 16.398438-24.640625 16.398438-39.601562 0-3.335938-.335938-6.625-.902344-9.839844l12.785156-12.785156c15.589844-15.589844 15.589844-40.972657 0-56.566407l-23.289062-23.296875c-12.191406-12.183594-30.753906-15.199218-46.167969-7.496094l-61.953125 30.976563c-3.886718 1.945313-8.246094 2.769531-12.574218 2.464844l-50.023438-3.839844c-11.730469-.898437-23.089844 3.328125-31.355469 11.597656l-82.046875 82.042969c-7.550781 7.550781-11.710937 17.589844-11.710937 28.277344v66.28125c0 5.304687-1.800781 10.527344-5.054688 14.726562l-14.050781 18.066406-18.925781-21.144531-14.296875 35.902344-38.855469-5.78125 12.519531 36.636719-33.59375 20.203125 33.601563 20.191406-12.519531 36.640625 38.855468-5.785156 4.769532 11.984375-.824219-.113281c-.234375 1.753906-.355469 3.535156-.355469 5.328124v43.753907c0 22.054687 17.945312 40 40 40h18.113281c10.136719 14.488281 26.914063 24 45.886719 24 18.976562 0 35.761719-9.511719 45.890625-24h132.222656c10.136719 14.488281 26.914063 24 45.886719 24 18.976562 0 35.761719-9.511719 45.890625-24h18.109375c22.058594 0 40-17.945313 40-40v-32.9375c0-17.238281-10.988281-32.496094-27.34375-37.945313zm-121.148438-56.742187 32.652344 38.113281c4.722656 5.503906 10.851563 9.613281 17.722656 11.902344l65.703126 21.894531c9.824218 3.28125 16.414062 12.433594 16.414062 22.777344v24.9375h-34.359375c-6.902344-23.105469-28.328125-40-53.640625-40-25.308594 0-46.734375 16.894531-53.636719 40h-116.722656c-6.902344-23.105469-28.328125-40-53.640625-40-12.308594 0-23.671875 4.039062-32.917969 10.796875l.910157-36.871094 38.578124-7.65625-11.433593-14.09375 33.144531-33.144531c4.472656-4.472657 10.65625-7.03125 16.976562-7.03125h116.023438c7.023438 0 13.664062 3.054687 18.226562 8.375zm-233.144531 119.625h-34.363281v-22.96875l20.59375-23.007813 33.128906 17.792969c-9.105468 7.078125-15.976562 16.871094-19.359375 28.183594zm35.664063-104 11.238281-13.867188c1.335937 1.730469 2.753906 3.402344 4.304687 4.984375l-12.558593 12.5625zm49.894531-53.699219c1.558594-1.550781 3.609375-2.335938 5.65625-2.335938s4.097656.785157 5.65625 2.335938c3.121094 3.128906 3.121094 8.203125 0 11.320312-3.015625 3.035157-8.289063 3.035157-11.3125 0-3.121094-3.125-3.121094-8.191406 0-11.320312zm28.183594 13.699219c3-8.457031 1.191406-18.25-5.558594-25.007813-9.359375-9.363281-24.578125-9.363281-33.9375 0-9.320313 9.320313-9.34375 24.453125-.101563 33.824219-1.195312.949219-2.441406 1.804687-3.53125 2.902344l-8.0625 8.0625c-1.976562-2.03125-3.671874-4.246094-5.144531-6.589844l2.808594-3.464844-5.214844-1.03125c-2.402343-5.191406-3.777343-10.832031-3.777343-16.71875 0-10.691406 4.160156-20.738281 11.710937-28.289062 15.601563-15.59375 40.976563-15.59375 56.570313 0 9.527343 9.527343 13.527343 23.304687 10.886718 36.320312h-16.648437zm26.695312-34.632813c-2.535156-4.71875-5.742187-9.121094-9.621093-13l79.191406-79.191406c3.933594 3.925781 8.320312 7.125 12.984375 9.648438zm137.449219-103.511718c-15.59375 15.589843-40.976562 15.589843-56.566406 0-7.554688-7.554688-11.714844-17.601563-11.714844-28.289063 0-10.679687 4.160156-20.726563 11.714844-28.28125 7.796875-7.796875 18.039062-11.695313 28.285156-11.695313 10.25 0 20.488281 3.898438 28.289062 11.695313 7.550782 7.554687 11.710938 17.601563 11.710938 28.28125 0 10.6875-4.160156 20.734375-11.71875 28.289063zm28.289062-62.226563-7.304687 7.296875c-2.550781-4.703125-5.785156-9.0625-9.671875-12.949219l21.582031-21.59375c4.234375 8.917969 2.753907 19.878907-4.605469 27.246094zm-291.816406 141.761719v-66.28125c0-6.320313 2.558594-12.496094 7.023438-16.964844l82.054687-82.042969c4.960938-4.957031 11.847657-7.503906 18.808594-6.957031l50.023437 3.839844c7.234376.550781 14.480469-.859375 20.960938-4.105469l61.953125-30.976563c9.253906-4.640624 20.390625-2.824218 27.703125 4.496094l17.632812 17.632813-24.296874 24.304687c-21.214844-11.449218-48.3125-8.257812-66.214844 9.640625-10.578125 10.574219-16.402344 24.636719-16.402344 39.589844 0 9.464844 2.34375 18.558594 6.730469 26.648437l-82.503907 82.511719c-21.21875-11.449219-48.3125-8.257812-66.21875 9.640625-10.574218 10.574219-16.398437 24.640625-16.398437 39.597656 0 4.480469.582031 8.867188 1.601563 13.113282l-15.1875-3.015625-.957032-38.582031-22.015625 11.820312 7.277344-9.359375c5.433594-6.992187 8.425781-15.710937 8.425781-24.550781zm-83.535156 135.761718 8.199219-24-21.855469-13.152343 21.863281-13.152344-8.199219-24 25.390626 3.78125 9.414062-23.671875 17.066406 19.066406 22.617188-12.136718.628906 25.382812 25.121094 4.984375-16 19.746094 16 19.742187-25.121094 4.984375-.628906 25.382813-22.617188-12.132813-17.066406 19.0625-9.421875-23.671875zm58.8125 98.847657c-10.414062 0-19.214844-6.714844-22.527344-16h30.527344c0 5.558593.84375 10.925781 2.363281 16zm64 24c-22.054688 0-40-17.945313-40-40 0-22.058594 17.945312-40 40-40 22.058594 0 40 17.941406 40 40 0 22.054687-17.941406 40-40 40zm53.640625-24c1.519531-5.074219 2.359375-10.441407 2.359375-16h112c0 5.558593.84375 10.925781 2.363281 16zm170.359375 24c-22.054688 0-40-17.945313-40-40 0-22.058594 17.945312-40 40-40 22.058594 0 40 17.941406 40 40 0 22.054687-17.941406 40-40 40zm64-24h-10.359375c1.519531-5.074219 2.359375-10.441407 2.359375-16h30.53125c-3.3125 9.285156-12.113281 16-22.53125 16zm0 0"/>
    <path d="m196.269531 325.898438-25.367187 50.738281h193.886718l-25.367187-50.738281c-4.089844-8.175782-12.3125-13.261719-21.464844-13.261719h-100.222656c-9.152344 0-17.375 5.085937-21.464844 13.261719zm21.464844 2.738281h100.222656c3.046875 0 5.792969 1.695312 7.152344 4.421875l13.792969 27.578125h-142.113282l13.792969-27.578125c1.359375-2.726563 4.105469-4.421875 7.152344-4.421875zm0 0"/>
    <path d="m380.78125 97.234375c-9.0625-9.0625-24.871094-9.0625-33.9375 0-9.359375 9.359375-9.359375 24.585937 0 33.945313 4.683594 4.679687 10.824219 7.015624 16.96875 7.015624s12.289062-2.335937 16.96875-7.015624c9.359375-9.359376 9.359375-24.585938 0-33.945313zm-11.3125 22.632813c-3.117188 3.113281-8.191406 3.113281-11.3125 0-3.117188-3.128907-3.117188-8.191407 0-11.320313 1.503906-1.511719 3.511719-2.34375 5.65625-2.34375s4.144531.832031 5.65625 2.34375c3.121094 3.128906 3.121094 8.199219 0 11.320313zm0 0"/>
    <path d="m162.324219 225.1875 137.097656-137.113281-53.816406-17.933594c-8.6875-2.898437-18.097657-.664063-24.550781 5.808594l-70.871094 70.863281c-6.464844 6.480469-8.691406 15.878906-5.792969 24.558594zm-.824219-67.054688 70.875-70.867187c1.527344-1.527344 3.550781-2.351563 5.628906-2.351563.851563 0 1.714844.144532 2.546875.417969l29.253907 9.757813-100.488282 100.472656-9.75-29.246094c-.960937-2.890625-.214844-6.03125 1.933594-8.183594zm0 0"/>
</svg>