<svg height="511pt" viewBox="-53 1 511 511.99975" width="511pt" xmlns="http://www.w3.org/2000/svg"><path d="m400.867188 285.132812-20.636719-17.042968v-30.90625c0-15.4375-12.558594-28-28-28-10.835938 0-20.246094 6.191406-24.898438 15.21875l-9.417969-7.777344v-30.570312c0-15.441407-12.558593-28-28-28-10.742187 0-20.085937 6.082031-24.777343 14.984374l-12.050781-9.953124v-74.238282c0-34.449218-16.738282-66.96875-44.773438-86.988281-3.476562-2.480469-8.148438-2.480469-11.621094 0-28.039062 20.019531-44.777344 52.539063-44.777344 86.988281v74.242188l-12.046874 9.949218c-4.695313-8.898437-14.039063-14.984374-24.78125-14.984374-15.4375 0-28 12.5625-28 28v30.574218l-9.417969 7.777344c-4.652344-9.03125-14.0625-15.21875-24.898438-15.21875-15.4375 0-28 12.558594-28 28v30.902344l-20.636719 17.042968c-2.300781 1.898438-3.632812 4.726563-3.632812 7.710938v47.511719c0 3.183593 1.519531 6.175781 4.085938 8.0625 1.738281 1.273437 3.8125 1.9375 5.917968 1.9375 1.003906 0 2.015625-.152344 2.996094-.460938l37.53125-11.800781c5.269531-1.65625 8.199219-7.269531 6.539062-12.539062-1.65625-5.269532-7.269531-8.195313-12.539062-6.539063l-24.53125 7.710937v-29.171874l131.414062-108.527344v96.378906l-30.527343 9.597656c-5.269531 1.660156-8.199219 7.273438-6.539063 12.539063 1.339844 4.273437 5.285156 7.003906 9.535156 7.003906.992188 0 2.003907-.148437 3.003907-.460937l24.527343-7.714844v13.375c0 16.398437 1.738282 32.558594 5.148438 48.28125l-44.554688 46.230468c-1.796874 1.863282-2.800781 4.351563-2.800781 6.9375v24.769532c0 3.460937 1.789063 6.675781 4.726563 8.5 1.609375.996094 3.4375 1.5 5.273437 1.5 1.515625 0 3.039063-.34375 4.441407-1.039063l55.078124-27.300781c4.515626 8.308594 9.558594 16.382812 15.144532 24.167969 1.878906 2.621093 4.90625 4.171875 8.128906 4.171875s6.246094-1.550782 8.125-4.171875c5.585938-7.785157 10.632812-15.859375 15.144531-24.167969l55.082031 27.300781c1.402344.695313 2.921876 1.039063 4.4375 1.039063 1.835938 0 3.664063-.503906 5.273438-1.5 2.941406-1.824219 4.726562-5.039063 4.726562-8.5v-24.769532c0-2.589843-1.003906-5.082031-2.804687-6.945312l-44.566406-46.148438c3.421875-15.746093 5.164062-31.933593 5.164062-48.355468v-13.375l138.417969 43.523437c.980469.308594 1.992188.457031 3 .457031 2.101562 0 4.179688-.664062 5.914062-1.9375 2.570313-1.882812 4.085938-4.878906 4.085938-8.0625v-47.511718c0-2.980469-1.332031-5.808594-3.632812-7.707032zm-293.78125-99.078124c0-4.410157 3.589843-8 8-8 4.410156 0 8 3.589843 8 8v.84375l-16 13.210937zm-62.316407 51.128906c0-4.410156 3.585938-8 8-8 4.410157 0 8 3.589844 8 8v1.175781l-16 13.214844zm299.460938 0c0-4.410156 3.589843-8 8-8 4.414062 0 8 3.589844 8 8v14.390625l-16-13.214844zm-62.316407-51.128906c0-4.410157 3.589844-8 8-8 4.410157 0 8 3.589843 8 8v14.054687l-16-13.210937zm-152.207031 243.792968v-4.617187l33.476563-34.734375c2.132812 6.484375 4.554687 12.875 7.273437 19.15625zm72.792969-1.914062c-20.054688-32.539063-30.585938-69.644532-30.585938-108.1875v-26.972656c0-.035157 0-.070313 0-.109376v-203.816406c0-25.535156 11.3125-49.765625 30.585938-66.175781 19.273438 16.410156 30.585938 40.640625 30.585938 66.175781v203.816406.109376 26.972656c0 16.609375-1.960938 32.953125-5.792969 48.78125-.0625.230468-.121094.464844-.167969.699218-5.070312 20.640626-13.339844 40.398438-24.625 58.707032zm72.792969-2.695313v4.609375l-40.753907-20.195312c2.714844-6.261719 5.128907-12.632813 7.253907-19.101563zm109.207031-98.511719-131.414062-41.320312v-96.378906l131.414062 108.527344zm0 0"/><path d="m86.210938 306.550781c-2.632813 0-5.210938 1.070313-7.070313 2.929688s-2.929687 4.4375-2.929687 7.070312c0 2.628907 1.070312 5.207031 2.929687 7.070313 1.859375 1.859375 4.4375 2.929687 7.070313 2.929687 2.628906 0 5.207031-1.070312 7.070312-2.929687 1.859375-1.863282 2.929688-4.441406 2.929688-7.070313 0-2.632812-1.070313-5.210937-2.929688-7.070312-1.863281-1.863281-4.441406-2.929688-7.070312-2.929688zm0 0"/><path d="m338.5 361.984375c-5.523438 0-10 4.476563-10 10v56.015625c0 5.523438 4.476562 10 10 10s10-4.476562 10-10v-56.015625c0-5.523437-4.476562-10-10-10zm0 0"/><path d="m338.5 458c-2.628906 0-5.210938 1.070312-7.070312 2.929688-1.859376 1.859374-2.929688 4.441406-2.929688 7.070312s1.070312 5.210938 2.929688 7.070312c1.859374 1.859376 4.441406 2.929688 7.070312 2.929688s5.210938-1.070312 7.070312-2.929688c1.859376-1.859374 2.929688-4.441406 2.929688-7.070312s-1.070312-5.210938-2.929688-7.070312c-1.859374-1.859376-4.441406-2.929688-7.070312-2.929688zm0 0"/><path d="m394.5 392.0625c-5.523438 0-10 4.476562-10 10v99.9375c0 5.523438 4.476562 10 10 10s10-4.476562 10-10v-99.9375c0-5.523438-4.476562-10-10-10zm0 0"/><path d="m66.5 361.984375c-5.523438 0-10 4.476563-10 10v56.015625c0 5.523438 4.476562 10 10 10s10-4.476562 10-10v-56.015625c0-5.523437-4.476562-10-10-10zm0 0"/><path d="m66.5 458c-2.628906 0-5.210938 1.070312-7.070312 2.929688-1.859376 1.859374-2.929688 4.441406-2.929688 7.070312s1.070312 5.210938 2.929688 7.070312c1.859374 1.859376 4.441406 2.929688 7.070312 2.929688s5.210938-1.070312 7.070312-2.929688c1.859376-1.859374 2.929688-4.441406 2.929688-7.070312s-1.070312-5.210938-2.929688-7.070312c-1.859374-1.859376-4.441406-2.929688-7.070312-2.929688zm0 0"/><path d="m10.5 392.0625c-5.523438 0-10 4.476562-10 10v99.9375c0 5.523438 4.476562 10 10 10s10-4.476562 10-10v-99.9375c0-5.523438-4.476562-10-10-10zm0 0"/></svg>