<?xml version="1.0" encoding="iso-8859-1"?>
<!-- Generator: Adobe Illustrator 19.0.0, SVG Export Plug-In . SVG Version: 6.00 Build 0)  -->
<svg version="1.1" id="Capa_1" xmlns="http://www.w3.org/2000/svg" xmlns:xlink="http://www.w3.org/1999/xlink" x="0px" y="0px"
	 viewBox="0 0 512 512" style="enable-background:new 0 0 512 512;" xml:space="preserve">
<g>
	<g>
		<path d="M320.068,164.482c-4.049-1.085-8.208,1.317-9.292,5.364l-46.673,174.195l-37.251,21.506l-1.475-15.559l22.007-12.706
			c2.538-1.465,4.005-4.261,3.769-7.181l-7.982-98.789c-0.209-2.593-1.733-4.898-4.036-6.107c-2.304-1.209-5.066-1.153-7.318,0.148
			l-17.306,9.992l-1.153-12.163c-0.396-4.172-4.104-7.229-8.268-6.837c-4.172,0.396-7.232,4.098-6.837,8.269l14.61,154.126
			c0.244,2.571,1.778,4.842,4.073,6.026c1.092,0.563,2.286,0.845,3.479,0.845c1.311,0,2.622-0.34,3.793-1.017l50.204-28.985
			c1.743-1.005,3.013-2.663,3.534-4.607l47.488-177.23C326.517,169.727,324.115,165.567,320.068,164.482z M223.802,333.379
			l-7.718-81.421l12.93-7.465l6.63,82.05L223.802,333.379z"/>
	</g>
</g>
<g>
	<g>
		<path d="M224.504,102.5l-106.508-28.54c-1.941-0.52-4.014-0.248-5.757,0.758l-50.205,28.986c-2.237,1.292-3.663,3.631-3.785,6.212
			c-0.121,2.579,1.077,5.045,3.182,6.542l26.143,18.588c0.018,0.014,0.037,0.025,0.056,0.039l43.683,31.058
			c1.333,0.948,2.869,1.404,4.389,1.404c2.373,0,4.71-1.11,6.19-3.191c2.428-3.415,1.628-8.151-1.787-10.579l-33.916-24.113
			l11.84-6.836l40.308,27.823c1.316,0.908,2.817,1.343,4.303,1.343c2.409,0,4.779-1.145,6.25-3.277
			c2.38-3.448,1.514-8.173-1.934-10.553l-44.256-30.549c-2.411-1.665-5.567-1.791-8.103-0.327L92.59,119.995l-12.738-9.056
			l37.252-21.507l103.473,27.725c4.046,1.085,8.208-1.317,9.292-5.364C230.954,107.745,228.552,103.584,224.504,102.5z"/>
	</g>
</g>
<g>
	<g>
		<path d="M195.055,281.103c-2.095-3.629-6.735-4.872-10.363-2.777l-37.098,21.418c-8.916,5.148-19.043,7.904-29.287,7.972
			c-4.189,0.026-7.562,3.445-7.536,7.635c0.027,4.173,3.419,7.537,7.586,7.537c0.017,0,0.034,0,0.051,0
			c12.868-0.084,25.584-3.543,36.774-10.004l37.098-21.418C195.907,289.371,197.15,284.731,195.055,281.103z"/>
	</g>
</g>
<g>
	<g>
		<path d="M307.141,86.762c-2.095-3.629-6.737-4.872-10.363-2.777L95.018,200.471L47.662,176.53c-2.285-1.154-4.997-1.079-7.216,0.2
			L3.793,197.892c-1.821,1.051-3.124,2.811-3.598,4.859c-0.473,2.048-0.077,4.202,1.098,5.947l54.676,81.228
			c8.567,12.733,20.643,22.385,34.923,27.912c0.9,0.348,1.827,0.514,2.737,0.514c3.042,0,5.912-1.843,7.077-4.849
			c1.513-3.908-0.429-8.302-4.336-9.814C85,299.288,75.382,291.6,68.556,281.456l-9.528-14.154l21.614-12.478
			c1.924-1.111,3.265-3.009,3.667-5.194c0.403-2.185-0.172-4.437-1.574-6.161l-40.736-50.112l2.479-1.431l47.356,23.941
			c2.286,1.154,4.998,1.08,7.216-0.2l205.313-118.54C307.993,95.03,309.236,90.39,307.141,86.762z M65.348,246.131l-14.813,8.553
			l-32.117-47.714l10.273-5.932L65.348,246.131z"/>
	</g>
</g>
<g>
	<g>
		<path d="M505.979,61.223c-5.683-9.844-14.862-16.888-25.847-19.83c-10.712-2.871-21.895-1.5-31.578,3.854l-13.033-5.823
			c-21.73-9.71-47.01-8.401-67.622,3.499L318.678,71.34c-3.628,2.095-4.872,6.735-2.777,10.363
			c2.096,3.629,6.738,4.872,10.364,2.777l42.654-24.626l4.943,8.563c6.003,10.398,16.93,16.216,28.152,16.216
			c5.501,0,11.071-1.398,16.167-4.341l34.577-19.963c0.006-0.003,0.012-0.006,0.018-0.009l2.654-1.532
			c6.335-3.658,13.714-4.629,20.771-2.738c7.07,1.895,12.977,6.426,16.634,12.761c7.546,13.071,3.049,29.846-10.027,37.397
			l-154.343,89.11c-3.628,2.095-4.872,6.735-2.777,10.363c1.405,2.434,3.955,3.794,6.577,3.794c1.287,0,2.593-0.328,3.786-1.018
			l154.345-89.111C510.72,107.612,517.709,81.539,505.979,61.223z M410.597,67.152c-8.248,4.761-18.831,1.927-23.593-6.322
			l-4.69-8.125c14.965-6.227,32.047-6.118,47.019,0.572l2.986,1.334L410.597,67.152z"/>
	</g>
</g>
<g>
	<g>
		<path d="M137.356,226.048c-6.225-2.404-12.405,4.194-9.606,10.259c1.459,3.159,4.953,4.89,8.354,4.254
			c3.313-0.691,5.827-3.501,6.086-6.888C142.442,230.378,140.425,227.233,137.356,226.048z"/>
	</g>
</g>
<g>
	<g>
		<path d="M193.388,199.187c-2.094-3.621-6.727-4.866-10.358-2.772c-3.631,2.094-4.876,6.727-2.782,10.358
			c1.407,2.439,3.956,3.793,6.575,3.793c1.295,0,2.6-0.324,3.793-1.012C194.238,207.461,195.482,202.819,193.388,199.187z"/>
	</g>
</g>
<g>
	<g>
		<path d="M167.29,214.26c-2.094-3.631-6.727-4.876-10.358-2.782c-3.631,2.094-4.876,6.737-2.782,10.368
			c1.406,2.428,3.955,3.793,6.585,3.793c1.285,0,2.59-0.324,3.783-1.022C168.14,222.524,169.384,217.892,167.29,214.26z"/>
	</g>
</g>
<g>
	<g>
		<path d="M219.487,184.126c-2.094-3.631-6.727-4.876-10.358-2.782c-3.631,2.094-4.876,6.737-2.782,10.368
			c1.405,2.427,3.954,3.793,6.585,3.793c1.285,0,2.59-0.334,3.783-1.022C220.337,192.391,221.581,187.748,219.487,184.126z"/>
	</g>
</g>
<g>
	<g>
		<path d="M323.877,123.848c-2.093-3.621-6.737-4.865-10.358-2.772c-3.631,2.094-4.875,6.737-2.782,10.358
			c1.407,2.439,3.955,3.803,6.575,3.803c1.295,0,2.6-0.334,3.793-1.022C324.726,132.122,325.972,127.479,323.877,123.848z"/>
	</g>
</g>
<g>
	<g>
		<path d="M297.779,138.921c-2.094-3.631-6.727-4.876-10.358-2.772c-3.631,2.094-4.875,6.727-2.782,10.358
			c1.407,2.438,3.955,3.793,6.575,3.793c1.295,0,2.6-0.324,3.793-1.022C298.629,147.185,299.874,142.552,297.779,138.921z"/>
	</g>
</g>
<g>
	<g>
		<path d="M271.681,153.982c-2.094-3.621-6.727-4.865-10.358-2.772s-4.876,6.737-2.782,10.368c1.406,2.428,3.956,3.793,6.575,3.793
			c1.295,0,2.6-0.334,3.793-1.022C272.531,162.257,273.775,157.614,271.681,153.982z"/>
	</g>
</g>
<g>
	<g>
		<path d="M245.585,169.054c-2.094-3.631-6.727-4.865-10.358-2.772c-3.631,2.094-4.876,6.727-2.782,10.358
			c1.405,2.438,3.954,3.793,6.575,3.793c1.295,0,2.6-0.324,3.793-1.012C246.434,177.319,247.678,172.686,245.585,169.054z"/>
	</g>
</g>
<g>
	<g>
		<path d="M338.256,107.012c-2.686,2.478-3.214,6.737-1.157,9.776c1.773,2.698,5.231,3.957,8.33,3.097
			c2.933-0.814,5.121-3.356,5.507-6.376C351.811,106.638,343.324,102.331,338.256,107.012z"/>
	</g>
</g>
<g>
	<g>
		<path d="M504.413,426.938h-45.51v-77.378h4.93c3.735,0,6.914-2.718,7.495-6.407l7.948-50.49h8.381
			c4.191,0,7.587-3.397,7.587-7.587s-3.396-7.587-7.587-7.587H472.79h-29.818v-34.137c0-4.19-3.396-7.587-7.587-7.587
			s-7.587,3.397-7.587,7.587v34.137h-29.817h-14.867c-4.191,0-7.587,3.397-7.587,7.587s3.396,7.587,7.587,7.587h8.381l7.948,50.49
			c0.581,3.689,3.76,6.407,7.495,6.407h4.93v77.378H8.759c-4.19,0-7.587,3.397-7.587,7.587s3.397,7.587,7.587,7.587h495.655
			c4.191,0,7.587-3.397,7.587-7.587S508.604,426.938,504.413,426.938z M443.73,426.938h-16.689v-13.773h16.689V426.938z
			 M443.73,397.992h-16.689v-19.486h16.689V397.992z M443.73,363.333h-16.689V349.56h16.689V363.333z M413.422,334.387
			l-6.568-41.723h57.06l-6.568,41.723H413.422z"/>
	</g>
</g>
<g>
	<g>
		<path d="M504.413,463.858H385.648c-4.191,0-7.587,3.397-7.587,7.587s3.396,7.587,7.587,7.587h118.765
			c4.191,0,7.587-3.397,7.587-7.587S508.603,463.858,504.413,463.858z"/>
	</g>
</g>
<g>
	<g>
		<path d="M360.358,463.858H8.759c-4.19,0-7.587,3.397-7.587,7.587s3.397,7.587,7.587,7.587h351.599
			c4.191,0,7.587-3.397,7.587-7.587S364.548,463.858,360.358,463.858z"/>
	</g>
</g>
<g>
</g>
<g>
</g>
<g>
</g>
<g>
</g>
<g>
</g>
<g>
</g>
<g>
</g>
<g>
</g>
<g>
</g>
<g>
</g>
<g>
</g>
<g>
</g>
<g>
</g>
<g>
</g>
<g>
</g>
</svg>
